<svg width="990" height="108" xmlns="http://www.w3.org/2000/svg" xmlns:xlink="http://www.w3.org/1999/xlink" overflow="hidden"><defs><clipPath id="clip0"><rect x="175" y="306" width="990" height="108"/></clipPath><clipPath id="clip1"><rect x="176" y="306" width="988" height="107"/></clipPath><clipPath id="clip2"><rect x="176" y="306" width="988" height="107"/></clipPath><clipPath id="clip3"><rect x="116" y="306" width="1048" height="107"/></clipPath></defs><g clip-path="url(#clip0)" transform="translate(-175 -306)"><g clip-path="url(#clip1)"><g clip-path="url(#clip2)"><g clip-path="url(#clip3)"><path d="M641.822 69.1895C626.203 43.1885 597.824 65.5322 589.14 80.0016 584.044 71.5278 575.82 70.9882 566.047 70.9882 557.233 70.9882 560.531 85.008 550.888 81.8103 529.214 74.5956 518.991 84.2085 499.645 84.2085 481.908 84.2085 463.082 84.8181 444.795 84.8181 421.662 84.8181 477.721 88.9851 486.655 90.2242 530.913 96.3597 582.895 91.4233 628.841 91.4233 648.477 91.4233 667.143 90.8237 686.579 90.8237 689.457 90.8237 704.696 91.843 705.345 90.2242 710.691 76.8639 681.513 84.2085 679.364 83.609 679.244 83.569 656.991 61.4851 656.991 72.1973 656.981 68.48 647.557 73.966 641.822 69.1895Z" fill="#FFFFFF" fill-rule="evenodd" fill-opacity="0.2" transform="matrix(1 0 0 1.00041 116.424 306.147)"/><path d="M942.992 69.6392C937.376 68.9997 925.275 68.1902 920.938 70.4086 918.04 71.8876 915.502 75.385 913.024 75.8047 910.625 76.2144 897.125 74.5956 902.851 78.5027 889.351 69.2994 891.519 89.2948 884.195 89.2948 879.458 89.2948 846.462 89.4947 849.71 93.9215 846.852 93.9215 816.104 100.906 816.354 101.246 812.287 102.635 807.93 102.795 802.784 102.795 794.39 102.795 811.418 104.734 815.225 105.113 830.634 106.612 846.742 106.652 863.28 106.652 925.085 106.652 988.099 105.113 1047.58 105.113 1037.78 101.776 1026.94 101.646 1017.62 97.3989 1009.26 93.6017 1013.88 88.7053 1004.62 86.5968 990.937 83.4891 988.579 90.8437 979.176 90.8437 976.657 90.8437 972.96 90.7238 972.96 88.9151 972.96 82.8695 964.037 75.5848 957.132 73.4964 950.287 71.4179 949.787 79.4021 949.787 75.425 949.777 71.5978 946.799 72.2373 942.992 69.6392Z" fill="#FFFFFF" fill-rule="evenodd" fill-opacity="0.2" transform="matrix(1 0 0 1.00041 116.424 306.147)"/><path d="M142.496 0.689497C136.88 0.0499635 124.779-0.759446 120.442 1.45894 117.544 2.93786 115.006 6.4353 112.528 6.855 110.13 7.2647 96.6295 5.64588 102.355 9.55303 88.8552 0.349745 91.0236 20.3452 83.6989 20.3452 78.9624 20.3452 45.9665 20.545 49.2141 24.9718 46.3562 24.9718 15.6086 31.9567 15.8584 32.2964 11.7914 33.6854 7.43458 33.8453 2.28833 33.8453-6.10555 33.8453 10.922 35.7839 14.7293 36.1636 30.138 37.6625 46.2463 37.7025 62.7742 37.7025 124.579 37.7025 187.593 36.1636 247.07 36.1636 237.277 32.826 226.435 32.6961 217.112 28.4492 208.758 24.652 213.374 19.7556 204.111 17.6471 190.431 14.5394 188.073 21.894 178.67 21.894 176.151 21.894 172.454 21.7741 172.454 19.9654 172.454 13.9198 163.531 6.63516 156.626 4.54668 149.781 2.4682 149.281 10.4524 149.281 6.47528 149.281 2.64807 146.303 3.27761 142.496 0.689497Z" fill="#FFFFFF" fill-rule="evenodd" fill-opacity="0.2" transform="matrix(1 0 0 1.00041 116.424 306.147)"/></g></g></g></g></svg>