<svg width="1080" height="292" xmlns="http://www.w3.org/2000/svg" xmlns:xlink="http://www.w3.org/1999/xlink" overflow="hidden"><defs><clipPath id="clip0"><rect x="100" y="220" width="1080" height="292"/></clipPath><clipPath id="clip1"><rect x="101" y="221" width="1078" height="278"/></clipPath><clipPath id="clip2"><rect x="101" y="221" width="1078" height="278"/></clipPath><clipPath id="clip3"><rect x="101" y="221" width="1078" height="278"/></clipPath></defs><g clip-path="url(#clip0)" transform="translate(-100 -220)"><g clip-path="url(#clip1)"><g clip-path="url(#clip2)"><g clip-path="url(#clip3)"><path d="M1179 454.889 1179 313.448C1165.18 315.707 1150.03 316.997 1144.68 313.128 1133.98 305.39 1105.44 304.1 1089.38 305.39 1073.34 306.679 1038.55 302.81 1025.17 289.904 1011.79 277.007 1001.99 280.876 992.18 291.194 982.373 301.511 952.931 287.325 939.554 291.194 926.178 295.062 917.26 319.586 900.315 319.586 883.37 319.586 833.423 288.614 816.478 298.931 799.532 309.259 762.072 346.669 750.475 344.089 738.878 341.51 713.915 316.997 695.18 323.445 676.445 329.903 660.399 371.182 651.482 366.023 642.564 360.865 632.757 347.968 632.757 347.968 632.757 347.968 622.06 367.313 606.894 353.127 591.728 338.931 578.352 326.024 557.837 329.903 537.323 333.772 520.377 346.679 514.139 335.062 507.901 323.445 496.304 322.165 485.597 322.165 474.889 322.165 448.137 286.035 426.732 286.035 405.328 286.035 382.144 309.259 374.117 306.679 366.089 304.09 347.364 274.418 338.446 257.643 329.529 240.867 317.042 246.026 309.014 248.605 300.986 251.184 297.417 225.381 275.123 221.512 252.829 217.643 234.984 249.895 226.066 255.063 217.149 260.222 206.442 255.063 201.983 260.222 197.524 265.38 197.524 284.735 190.386 288.604 183.258 292.473 164.523 289.894 158.275 283.446 152.036 276.987 144.898 270.549 140.439 282.156 135.991 293.773 122.614 307.969 117.266 300.231 115.246 297.312 108.558 293.663 101 290.254L101 498.798 1179 454.889Z" fill="#40407C"/></g></g></g><rect x="101" y="442" width="1078" height="70" fill="#40407C"/></g></svg>