<svg width="970" height="439" xmlns="http://www.w3.org/2000/svg" xmlns:xlink="http://www.w3.org/1999/xlink" overflow="hidden"><defs><clipPath id="clip0"><rect x="210" y="187" width="970" height="439"/></clipPath><clipPath id="clip1"><rect x="211" y="187" width="968" height="220"/></clipPath><clipPath id="clip2"><rect x="211" y="187" width="968" height="220"/></clipPath><clipPath id="clip3"><rect x="211" y="187" width="968" height="220"/></clipPath></defs><g clip-path="url(#clip0)" transform="translate(-210 -187)"><rect x="211" y="360" width="968" height="265" fill="#585899"/><g clip-path="url(#clip1)"><g clip-path="url(#clip2)"><g clip-path="url(#clip3)"><path d="M968 187.919 964.841 104.28 960.851 101.799C914.939 75.1089 845.342 60.2226 834.855 56.5267 829.65 54.6339 824.369 53.2655 818.869 51.7181 813.089 50.0427 807.347 46.7944 802.704 44.2622 789.327 36.7679 774.339 29.7852 762.803 22.1503 761.908 21.5492 761.537 21.8178 759.964 21.562 758.212 21.319 754.362 19.3239 752.483 18.4415 750.909 17.7509 748.876 15.4233 747.584 14.5921 746.792 13.991 743.773 11.3309 743.773 11.3309 742.111 11.024 742.52 11.446 740.947 10.8066 737.993 9.54047 736.01 8.17207 730.614 9.18239 725.025 10.2183 718.451 10.3334 712.057 10.5764 709.64 10.6659 710.394 10.1415 709.192 9.31028 708.694 9.01613 707.146 8.9394 706.353 8.72199 704.294 8.04418 702.708 7.22569 700.739 6.22816 698.859 5.29458 696.045 5.20506 694.076 4.4633 693.091 4.05406 692.375 2.87749 691.288 2.54498 689.229 1.86717 686.594 1.52187 684.714 0.716175 684.42 0.601075 684.996 0.140677 684.689 0.0895219 684.101-0.076733 681.402 0.0255777 680.916 0.230199 677.872 1.48351 675.724 3.70876 672.77 5.269 669.918 6.75251 665.787 7.6733 662.641 9.0545 661.874 9.3998 661.516 10.1032 660.863 10.4485 660.006 10.8577 658.932 10.8321 658.075 11.2542 653.804 13.4283 649.622 15.8454 645.338 17.7765 643.419 18.6078 640.708 18.5822 638.803 19.4135 631.257 22.406 625.988 24.0558 617.65 26.2683 612.47 27.6623 607.227 29.9387 602.047 31.5756 600.513 32.0105 597.814 32.4964 596.484 33.1103 590.486 36.0517 586.816 38.8397 579.002 39.8884 569.167 41.3335 559.947 43.3158 548.411 43.7506 546.582 43.8146 545.201 43.367 543.756 43.2902 540.149 43.06 538.538 43.5588 535.405 42.9066 534.331 42.7019 533.55 42.6636 532.566 42.3183 532.271 42.2032 532.924 41.6788 532.54 41.6277 530.98 41.3079 529.343 41.6277 527.872 41.1033 527.578 41.0522 528.141 40.5278 527.847 40.4767L524.176 40.6174C519.048 40.8092 513.459 41.4614 508.305 41.2184 501.412 40.8476 499.097 38.4816 493.317 36.9853 488.431 35.796 483.188 35.4251 478.392 34.1462 474.082 33.1103 468.852 32.9952 464.35 32.036 459.861 31.128 456.344 30.3223 451.216 30.5142 448.607 30.6165 448.875 32.6243 447.571 34.0567 447.29 34.5043 446.215 34.3508 445.857 34.8112 442.967 37.8166 440.946 41.1033 436.803 43.9041 435.575 44.7609 434.629 45.362 433.196 46.0526 432.723 46.334 431.93 45.848 431.355 46.1166 430.217 46.6665 429.769 47.6384 428.618 48.2395 427.569 48.7255 426.009 48.5209 424.871 49.0068 409.473 56.8975 393.206 64.9289 376.465 71.1187 370.825 73.1522 365.671 75.4286 359.929 77.1551 358.113 77.6027 356.08 77.6155 354.34 77.9991 352.716 78.3189 351.284 79.1245 349.647 79.5082 348.023 80.007 345.989 79.9558 344.16 80.4034 342.434 80.9022 341.309 82.1427 339.595 82.6543 337.766 83.1019 335.822 82.9868 334.006 83.4983 325.578 86.0817 316.447 88.1918 308.237 91.2739 300.781 94.0108 294.22 97.3486 287.173 100.827 283.17 102.809 278.183 103.999 274.282 106.045 274.193 106.173 274.602 106.595 274.308 106.672 272.978 107.426 271.635 107.848 269.819 108.232 263.361 109.357 254.741 109.114 250.188 106.966 249.996 106.851 250.367 106.454 250.162 106.339 249.178 105.751 249.075 105.815 248.27 105.022 248.065 104.843 247.4 105.252 247.298 105.06 246.569 103.449 247.873 102.4 246.172 101.006 244.267 99.3821 240.149 98.3973 237.693 97.2975 237.489 97.1824 237.962 96.722 237.668 96.6069 235.992 95.8523 233.652 95.6221 231.977 94.8676 230.89 94.2793 230.276 93.4864 229.189 92.8981 227.808 92.2587 225.864 92.3226 224.495 91.7599 221.349 90.4938 216.924 88.7673 213.19 87.4629 207.307 85.2888 201.846 82.0276 196.986 79.3164 187.868 74.2392 175.207 75.0321 165.411 79.8151 162.162 81.3242 157.635 81.6823 154.285 82.9484 147.877 85.3399 139.143 87.7954 132.134 89.1382 122.121 91.0821 118.015 103.999 107.362 105.265 101.735 105.93 92.0157 107.286 86.5549 107.989 79.9942 108.871 72.4104 117.696 65.7218 117.951L55.6698 125.369C47.7279 133.093 14.2851 142.89 0.127888 151.19L0 151.241 2.58335 219.597 2.58335 219.597 968 187.919Z" fill="#585899" fill-rule="evenodd" transform="matrix(1 0 0 1.00026 211 187.179)"/></g></g></g></g></svg>